<svg xmlns="http://www.w3.org/2000/svg">
  <symbol id="icon-character" viewBox="0 0 24 24">
    <path d="M12 3l4 2v5c0 3-1.6 5.6-4 7c-2.4-1.4-4-4-4-7v-5z"></path>
    <path d="M8 21c1-2 2.4-3 4-3s3 1 4 3"></path>
    <path d="M10 9h4"></path>
  </symbol>
  <symbol id="icon-creature" viewBox="0 0 24 24">
    <path d="M5 14c0-4.2 3-8 7-8s7 3.8 7 8"></path>
    <path d="M7 8l-3-3"></path>
    <path d="M17 8l3-3"></path>
    <path d="M8 15c1.2 3 2.5 4.5 4 4.5s2.8-1.5 4-4.5"></path>
    <path d="M9 12h.01"></path>
    <path d="M15 12h.01"></path>
  </symbol>
  <symbol id="icon-location" viewBox="0 0 24 24">
    <path d="M12 21s7-5.6 7-12a7 7 0 0 0-14 0c0 6.4 7 12 7 12z"></path>
    <path d="M9.5 9.5a2.5 2.5 0 1 0 5 0a2.5 2.5 0 0 0-5 0"></path>
  </symbol>
  <symbol id="icon-lore" viewBox="0 0 24 24">
    <path d="M5 5.5c2.5-1.2 4.8-.9 7 1c2.2-1.9 4.5-2.2 7-1v13c-2.5-1.2-4.8-.9-7 1c-2.2-1.9-4.5-2.2-7-1z"></path>
    <path d="M12 6.5v13"></path>
    <path d="M8 9h1.5"></path>
    <path d="M14.5 9h1.5"></path>
  </symbol>
  <symbol id="icon-item" viewBox="0 0 24 24">
    <path d="M7 3h10l2 6l-7 12l-7-12z"></path>
    <path d="M7 3l5 18l5-18"></path>
    <path d="M5 9h14"></path>
  </symbol>
  <symbol id="icon-object" viewBox="0 0 24 24">
    <path d="M12 3l8 4.5v9l-8 4.5l-8-4.5v-9z"></path>
    <path d="M12 12l8-4.5"></path>
    <path d="M12 12v9"></path>
    <path d="M12 12l-8-4.5"></path>
  </symbol>
  <symbol id="icon-region" viewBox="0 0 24 24">
    <path d="M3 12a9 9 0 1 0 18 0a9 9 0 0 0-18 0"></path>
    <path d="M3.7 9h16.6"></path>
    <path d="M3.7 15h16.6"></path>
    <path d="M12 3c2 2.5 3 5.5 3 9s-1 6.5-3 9"></path>
    <path d="M12 3c-2 2.5-3 5.5-3 9s1 6.5 3 9"></path>
  </symbol>
  <symbol id="icon-folder" viewBox="0 0 24 24">
    <path d="M3 7a2 2 0 0 1 2-2h4l2 2h8a2 2 0 0 1 2 2v8a2 2 0 0 1-2 2h-14a2 2 0 0 1-2-2z"></path>
  </symbol>
  <symbol id="icon-magic" viewBox="0 0 24 24">
    <path d="M4 20l10-10"></path>
    <path d="M13 5l6 6"></path>
    <path d="M15 3l6 6"></path>
    <path d="M8 4l1 2l2 1l-2 1l-1 2l-1-2l-2-1l2-1z"></path>
    <path d="M18 14l.8 1.5l1.7.5l-1.7.5l-.8 1.5l-.8-1.5l-1.7-.5l1.7-.5z"></path>
  </symbol>
  <symbol id="icon-skill" viewBox="0 0 24 24">
    <path d="M12 3l2 4.2l4.6.7l-3.3 3.2l.8 4.6l-4.1-2.2l-4.1 2.2l.8-4.6l-3.3-3.2l4.6-.7z"></path>
    <path d="M8 21h8"></path>
    <path d="M10 18h4"></path>
  </symbol>
  <symbol id="icon-campaign-map" viewBox="0 0 24 24">
    <path d="M9 18l-6 3v-15l6-3l6 3l6-3v15l-6 3z"></path>
    <path d="M9 3v15"></path>
    <path d="M15 6v15"></path>
  </symbol>
  <symbol id="icon-document" viewBox="0 0 24 24">
    <path d="M14 3v4a1 1 0 0 0 1 1h4"></path>
    <path d="M17 21h-10a2 2 0 0 1-2-2v-14a2 2 0 0 1 2-2h7l5 5v11a2 2 0 0 1-2 2z"></path>
  </symbol>
  <symbol id="icon-folder-open" viewBox="0 0 24 24">
    <path d="M3 7a2 2 0 0 1 2-2h4l2 2h8a2 2 0 0 1 2 2"></path>
    <path d="M3 10h18l-2 8a2 2 0 0 1-2 1.5h-10a2 2 0 0 1-2-1.5z"></path>
  </symbol>
  <symbol id="icon-plus" viewBox="0 0 24 24">
    <path d="M12 5v14"></path>
    <path d="M5 12h14"></path>
  </symbol>
  <symbol id="icon-settings" viewBox="0 0 24 24">
    <path d="M12 15.5a3.5 3.5 0 1 0 0-7a3.5 3.5 0 0 0 0 7z"></path>
    <path d="M19.4 15a1.7 1.7 0 0 0 .3 1.9l.1.1a2 2 0 0 1-2.8 2.8l-.1-.1a1.7 1.7 0 0 0-1.9-.3a1.7 1.7 0 0 0-1 1.6v.2a2 2 0 0 1-4 0v-.2a1.7 1.7 0 0 0-1-1.6a1.7 1.7 0 0 0-1.9.3l-.1.1a2 2 0 0 1-2.8-2.8l.1-.1a1.7 1.7 0 0 0 .3-1.9a1.7 1.7 0 0 0-1.6-1h-.2a2 2 0 0 1 0-4h.2a1.7 1.7 0 0 0 1.6-1a1.7 1.7 0 0 0-.3-1.9l-.1-.1a2 2 0 0 1 2.8-2.8l.1.1a1.7 1.7 0 0 0 1.9.3h.1a1.7 1.7 0 0 0 .9-1.5v-.2a2 2 0 0 1 4 0v.2a1.7 1.7 0 0 0 1 1.6a1.7 1.7 0 0 0 1.9-.3l.1-.1a2 2 0 0 1 2.8 2.8l-.1.1a1.7 1.7 0 0 0-.3 1.9v.1a1.7 1.7 0 0 0 1.5.9h.2a2 2 0 0 1 0 4h-.2a1.7 1.7 0 0 0-1.5 1z"></path>
  </symbol>
  <symbol id="icon-tools" viewBox="0 0 24 24">
    <path d="M14.7 6.3a4 4 0 0 0-5 5l-5.4 5.4a2 2 0 0 0 3 3l5.4-5.4a4 4 0 0 0 5-5l-2.7 2.7l-3-3z"></path>
  </symbol>
  <symbol id="icon-hand" viewBox="0 0 24 24">
    <path d="M8 13v-7a1.5 1.5 0 0 1 3 0v5"></path>
    <path d="M11 11v-7a1.5 1.5 0 0 1 3 0v7"></path>
    <path d="M14 11v-5a1.5 1.5 0 0 1 3 0v7"></path>
    <path d="M17 13v-3a1.5 1.5 0 0 1 3 0v4c0 4-2.5 7-7 7h-1.5c-2.4 0-4.5-1.3-5.6-3.3l-2-3.5a1.7 1.7 0 0 1 2.8-1.9l1.3 1.7"></path>
  </symbol>
  <symbol id="icon-image" viewBox="0 0 24 24">
    <path d="M5 5h14a2 2 0 0 1 2 2v10a2 2 0 0 1-2 2h-14a2 2 0 0 1-2-2v-10a2 2 0 0 1 2-2z"></path>
    <path d="M8 10a1.5 1.5 0 1 0 0-3a1.5 1.5 0 0 0 0 3z"></path>
    <path d="M21 15l-4-4l-4 4l-2-2l-5 5"></path>
  </symbol>
  <symbol id="icon-presentation" viewBox="0 0 24 24">
    <path d="M4 4h16v11h-16z"></path>
    <path d="M12 15v5"></path>
    <path d="M9 20h6"></path>
  </symbol>
  <symbol id="icon-grid" viewBox="0 0 24 24">
    <path d="M4 4h16v16h-16z"></path>
    <path d="M4 10h16"></path>
    <path d="M4 16h16"></path>
    <path d="M10 4v16"></path>
    <path d="M16 4v16"></path>
  </symbol>
  <symbol id="icon-fog" viewBox="0 0 24 24">
    <path d="M5 16h14"></path>
    <path d="M7 20h10"></path>
    <path d="M8 12h9a3 3 0 0 0 0-6a5 5 0 0 0-9.6 1.8a3 3 0 0 0 .6 4.2z"></path>
  </symbol>
  <symbol id="icon-shapes" viewBox="0 0 24 24">
    <path d="M5 5h6v6h-6z"></path>
    <path d="M16 4l5 8h-10z"></path>
    <path d="M15 16a4 4 0 1 0 8 0a4 4 0 0 0-8 0"></path>
  </symbol>
  <symbol id="icon-link" viewBox="0 0 24 24">
    <path d="M10 13a5 5 0 0 0 7.1 0l2-2a5 5 0 0 0-7.1-7.1l-1.1 1.1"></path>
    <path d="M14 11a5 5 0 0 0-7.1 0l-2 2a5 5 0 0 0 7.1 7.1l1.1-1.1"></path>
  </symbol>
  <symbol id="icon-trash" viewBox="0 0 24 24">
    <path d="M4 7h16"></path>
    <path d="M10 11v6"></path>
    <path d="M14 11v6"></path>
    <path d="M6 7l1 14h10l1-14"></path>
    <path d="M9 7v-3h6v3"></path>
  </symbol>
  <symbol id="icon-eye" viewBox="0 0 24 24">
    <path d="M2 12s3.5-6 10-6s10 6 10 6s-3.5 6-10 6s-10-6-10-6z"></path>
    <path d="M9.5 12a2.5 2.5 0 1 0 5 0a2.5 2.5 0 0 0-5 0"></path>
  </symbol>
  <symbol id="icon-eye-off" viewBox="0 0 24 24">
    <path d="M3 3l18 18"></path>
    <path d="M10.5 10.5a2.5 2.5 0 0 0 3 3"></path>
    <path d="M9.8 5.4a10.8 10.8 0 0 1 2.2-.4c6.5 0 10 7 10 7a17 17 0 0 1-3 4"></path>
    <path d="M6.7 6.7c-3 1.7-4.7 5.3-4.7 5.3s3.5 7 10 7a10.5 10.5 0 0 0 4.2-.9"></path>
  </symbol>
  <symbol id="icon-copy" viewBox="0 0 24 24">
    <path d="M8 8h10v12h-10z"></path>
    <path d="M6 16h-2v-12h10v2"></path>
  </symbol>
  <symbol id="icon-x" viewBox="0 0 24 24">
    <path d="M6 6l12 12"></path>
    <path d="M18 6l-12 12"></path>
  </symbol>
  <symbol id="icon-more" viewBox="0 0 24 24">
    <path d="M5 12h.01"></path>
    <path d="M12 12h.01"></path>
    <path d="M19 12h.01"></path>
  </symbol>
  <symbol id="icon-grip" viewBox="0 0 24 24">
    <path d="M9 6h.01"></path>
    <path d="M15 6h.01"></path>
    <path d="M9 12h.01"></path>
    <path d="M15 12h.01"></path>
    <path d="M9 18h.01"></path>
    <path d="M15 18h.01"></path>
  </symbol>
  <symbol id="icon-edit" viewBox="0 0 24 24">
    <path d="M4 20h4l10.5-10.5a2.1 2.1 0 0 0-4-4l-10.5 10.5z"></path>
    <path d="M13.5 6.5l4 4"></path>
  </symbol>
</svg>
